<svg width="135" height="135" viewBox="0 0 135 135" fill="none" xmlns="http://www.w3.org/2000/svg">
<circle cx="67.5" cy="67.5" r="67.5" fill="#FFD991"/>
<g clip-path="url(#clip0)">
<path d="M99.0303 105.324V113.362C99.0303 114.267 98.2974 115 97.3924 115H37.6079C36.703 115 35.97 114.267 35.97 113.362V105.324C35.97 99.1428 39.6451 93.8175 44.9295 91.4158C42.7733 89.7003 39.487 87.3945 37.0961 82.4338C33.7659 75.5345 34.3359 67.3952 38.5784 61.024C40.8838 57.5639 42.1122 53.5018 42.1122 49.3456V40.4741C42.1122 29.1663 51.2785 20 62.5864 20H72.4139C83.7218 20 92.8881 29.1663 92.8881 40.4741C92.8881 49.8691 92.6586 51.7089 93.791 55.4448C95.389 60.7274 97.4997 61.3809 99.1266 66.7568C101.684 75.2073 98.8551 84.4233 91.8849 89.9724L90.0708 91.4158C95.3552 93.8175 99.0303 99.1428 99.0303 105.324Z" fill="#FFDFBA"/>
<path d="M99.0303 105.324V113.362C99.0303 114.267 98.2969 115 97.3924 115H37.6079C36.7034 115 35.97 114.267 35.97 113.362V105.324C35.97 96.8963 42.802 90.0563 51.2375 90.0563C52.4926 90.0563 53.6842 89.784 54.755 89.2968L54.8062 89.4073L66.4975 98.4585C67.0878 98.9155 67.9125 98.9155 68.503 98.4585L80.1941 89.4073L80.2453 89.2968C81.3161 89.784 82.5077 90.0563 83.7627 90.0563C92.1655 90.0563 99.0303 96.8638 99.0303 105.324Z" fill="#FFAA64"/>
<path d="M86.2193 49.9451C87.0889 49.9946 87.7696 50.7092 87.7696 51.5802V61.3844C87.7696 69.8341 82.5999 77.0758 75.2497 80.1182C61.9585 85.6354 47.2308 75.8342 47.2308 61.3844V51.7227C47.2308 50.7626 48.0531 50.0041 49.0092 50.0907C58.8341 50.9815 68.5092 48.5004 76.6335 43.0273C77.5575 42.4049 78.8298 42.866 79.1216 43.9413C80.1322 47.6663 82.8886 49.7553 86.2193 49.9451Z" fill="#FFEBD2"/>
<path d="M91.8849 89.9724L90.0709 91.4158C88.1484 90.5436 86.0129 90.0564 83.7628 90.0564C79.0888 90.0564 75.2804 86.2819 75.2804 81.5923V80.194L75.2497 80.1182C82.5999 77.0758 87.7696 69.8341 87.7696 61.3844V51.5801C87.7696 50.7092 87.0888 49.9946 86.2193 49.9451C82.909 49.7565 80.1387 47.6902 79.1215 43.9414C78.8298 42.8661 77.5575 42.4051 76.6335 43.0275C68.5145 48.4969 58.8401 50.9821 49.0092 50.0908C48.0531 50.0042 47.2308 50.7628 47.2308 51.7228V61.3846C47.2308 69.8343 52.4005 77.076 59.7508 80.1184L59.72 80.1942V81.5926C59.72 86.2813 55.9127 90.0566 51.2376 90.0566C48.9875 90.0566 46.852 90.5438 44.9295 91.416L43.1155 89.9726C34.3094 82.9557 32.3486 70.3799 38.5785 61.0242C40.8838 57.5641 42.1123 53.502 42.1123 49.3458V40.4741C42.1123 29.1667 51.279 20 62.5864 20H72.414C83.7215 20 92.8881 29.1667 92.8881 40.4741V49.3456C92.8881 53.4969 94.1166 57.5639 96.422 61.024C102.675 70.4139 100.658 82.9883 91.8849 89.9724Z" fill="#42434D"/>
<path d="M75.5117 83.5559C70.4675 85.6674 64.9241 85.8312 59.4886 83.5559C59.7663 82.404 59.72 81.6579 59.72 80.194L59.7507 80.1183C64.6813 82.1649 70.3094 82.169 75.2497 80.1183L75.2804 80.194C75.2804 81.6586 75.2341 82.4044 75.5117 83.5559Z" fill="#FFD6A6"/>
<path d="M81.6631 22.2034C83.7539 23.264 82.8453 26.4553 80.5112 26.2344C79.8677 26.1734 79.2154 26.1422 78.556 26.1422H68.7284C57.4209 26.1422 48.2542 35.3089 48.2542 46.6164V49.1077C48.2542 50.5785 47.2305 50.531 47.2305 51.7226C47.2305 62.5375 47.2743 61.8528 47.1157 62.3194C45.5095 67.0445 43.5806 67.7283 42.0158 72.899C41.1634 75.7155 40.9116 78.6158 41.2068 81.4304C41.4478 83.7276 38.2491 84.8264 37.0958 82.4338C33.7895 75.5838 34.3073 67.438 38.5782 61.024C40.8835 57.5639 42.112 53.5018 42.112 49.3456V40.4741C42.112 29.1667 51.2787 20 62.5861 20H72.4137C75.7422 20 78.885 20.7942 81.6631 22.2034Z" fill="#4D4E59"/>
<path d="M63.6144 74.9626C66.6731 77.01 64.3419 81.7457 60.8689 80.5269C53.2349 77.8481 47.2308 70.7233 47.2308 61.3842V51.7224C47.2308 50.7622 48.0539 50.0047 49.01 50.0906C49.7946 50.1619 50.6562 50.218 51.5859 50.2465C53.2687 50.2976 54.6015 51.6872 54.6015 53.3708V58.1085C54.6015 65.2389 58.2369 71.3631 63.6144 74.9626Z" fill="#FFF3E4"/>
<path d="M58.183 92.0217C59.1547 92.7739 58.6412 94.3512 57.4123 94.3559C48.745 94.3883 42.1122 101.348 42.1122 109.623V115H37.6079C36.7034 115 35.97 114.267 35.97 113.362V105.324C35.97 96.8961 42.8022 90.0563 51.2375 90.0563C52.4926 90.0563 53.6842 89.784 54.755 89.2968L54.8062 89.4073L58.183 92.0217Z" fill="#FFBD7B"/>
<path d="M76.8172 92.0217C75.8455 92.7739 76.359 94.3512 77.5879 94.3559C86.2552 94.3883 92.888 101.348 92.888 109.623V115H97.3923C98.2969 115 99.0303 114.267 99.0303 113.362V105.324C99.0303 96.8961 92.198 90.0563 83.7627 90.0563C82.5076 90.0563 81.316 89.784 80.2452 89.2968L80.194 89.4073L76.8172 92.0217Z" fill="#FAA157"/>
<path d="M59.4844 56C59.0907 56 58.7131 56.1564 58.4348 56.4348C58.1564 56.7131 58 57.0907 58 57.4844V60.4531C58 60.8468 58.1564 61.2244 58.4348 61.5027C58.7131 61.7811 59.0907 61.9375 59.4844 61.9375C59.8781 61.9375 60.2556 61.7811 60.534 61.5027C60.8124 61.2244 60.9688 60.8468 60.9688 60.4531V57.4844C60.9688 57.0907 60.8124 56.7131 60.534 56.4348C60.2556 56.1564 59.8781 56 59.4844 56Z" fill="black"/>
<path d="M74.3281 61.9375C74.7218 61.9375 75.0994 61.7811 75.3777 61.5027C75.6561 61.2244 75.8125 60.8468 75.8125 60.4531V57.4844C75.8125 57.0907 75.6561 56.7131 75.3777 56.4348C75.0994 56.1564 74.7218 56 74.3281 56C73.9344 56 73.5569 56.1564 73.2785 56.4348C73.0001 56.7131 72.8438 57.0907 72.8438 57.4844V60.4531C72.8438 60.8468 73.0001 61.2244 73.2785 61.5027C73.5569 61.7811 73.9344 61.9375 74.3281 61.9375Z" fill="black"/>
</g>
<defs>
<clipPath id="clip0">
<rect width="95" height="95" fill="white" transform="translate(20 20)"/>
</clipPath>
</defs>
</svg>
