<svg width="70" height="70" viewBox="0 0 70 70" fill="none" xmlns="http://www.w3.org/2000/svg">
<g filter="url(#filter0_d)">
<rect x="10" y="10" width="50" height="50" rx="18.0645" fill="black"/>
</g>
<g clip-path="url(#clip0)">
<path d="M40.0672 48.496H33.3545C31.2261 48.496 29.2117 47.5555 27.8276 45.9157C26.449 44.2824 25.8461 42.1297 26.1733 40.0097C26.8413 35.6814 27.5644 32.5596 28.3224 30.7313C28.8109 29.5532 29.9421 28.7919 31.2044 28.7919H38.8905C39.5593 28.7919 40.1014 29.3416 40.1014 30.0196C40.1014 30.6976 39.5593 31.2472 38.8905 31.2472H31.2044C30.9196 31.2472 30.6647 31.4182 30.5551 31.6827C29.8826 33.3047 29.1948 36.3154 28.566 40.3892C28.3483 41.7995 28.7499 43.2319 29.6677 44.3193C30.591 45.4132 31.9348 46.0406 33.3545 46.0406H40.0671C41.4864 46.0406 42.8297 45.4134 43.7527 44.3198C44.6713 43.2313 45.073 41.7971 44.855 40.3849C44.2442 36.4292 43.0556 32.4315 42.4015 30.4006C42.2592 29.9589 42.3751 29.4735 42.701 29.1467L43.4604 28.3852C44.3556 27.3645 45.6783 26.8963 47.0094 27.1322C48.352 27.37 49.446 28.2804 49.9358 29.5674L49.9538 29.6155C50.4289 30.8994 50.8344 33.4623 50.9867 34.5047C51.0848 35.1754 50.6279 35.7997 49.9664 35.899C49.3046 35.9982 48.6891 35.5352 48.591 34.8645C48.3019 32.8854 47.9552 31.2046 47.6864 30.4781L47.6763 30.4512C47.4153 29.7656 46.8316 29.5931 46.5927 29.5509C46.0824 29.4606 45.5957 29.6358 45.2571 30.0319C45.2368 30.0555 45.2156 30.0785 45.1937 30.1005L44.9329 30.362C45.6312 32.6051 46.6773 36.3111 47.2477 40.005C47.5754 42.1271 46.9723 44.2816 45.5929 45.916C44.2092 47.5558 42.1951 48.496 40.0672 48.496V48.496ZM25.1465 27.1346C25.1465 24.3007 22.7762 22.9111 21.5229 22.5722L21.5226 22.5733C21.423 22.5464 21.3189 22.5307 21.2109 22.5307C20.5421 22.5307 20 23.0803 20 23.7584C20 24.3269 20.3817 24.8039 20.8992 24.9435L20.8989 24.9446C20.8989 24.9446 21.4138 25.0958 21.9006 25.4803C22.455 25.9184 22.7246 26.4595 22.7246 27.1346C22.7246 27.5221 22.502 28.4278 22.2867 29.3037C21.8869 30.9306 21.3892 32.9555 21.3926 34.8711C21.3951 36.3726 21.7295 37.6352 22.3862 38.6239C22.62 38.9759 23.0023 39.166 23.3917 39.1659C23.6244 39.1659 23.8595 39.0981 24.067 38.9564C24.6218 38.5777 24.7686 37.8147 24.395 37.2523C24.0115 36.675 23.8161 35.8724 23.8144 34.8668C23.8116 33.2547 24.2691 31.3932 24.6368 29.8974C24.9215 28.7386 25.1465 27.8234 25.1465 27.1346V27.1346ZM42.1683 25.1573C40.8793 23.6723 39.4302 22.7412 37.9218 22.4158V21.3031C37.9218 20.6251 37.3796 20.0754 36.7108 20.0754C36.042 20.0754 35.4999 20.6251 35.4999 21.3031V22.4158C33.9915 22.7412 32.5424 23.6723 31.2534 25.1573C30.8116 25.6663 30.8604 26.442 31.3625 26.8899C31.8646 27.3379 32.6298 27.2884 33.0716 26.7793C34.2458 25.4266 35.4702 24.7407 36.7108 24.7407C37.9514 24.7407 39.1759 25.4266 40.3501 26.7793C40.5895 27.0551 40.9237 27.196 41.2596 27.196C41.5437 27.196 41.8291 27.0951 42.0592 26.8899C42.5612 26.442 42.6101 25.6663 42.1683 25.1573V25.1573Z" fill="white"/>
</g>
<defs>
<filter id="filter0_d" x="0" y="0" width="70" height="70" filterUnits="userSpaceOnUse" color-interpolation-filters="sRGB">
<feFlood flood-opacity="0" result="BackgroundImageFix"/>
<feColorMatrix in="SourceAlpha" type="matrix" values="0 0 0 0 0 0 0 0 0 0 0 0 0 0 0 0 0 0 127 0"/>
<feMorphology radius="3" operator="dilate" in="SourceAlpha" result="effect1_dropShadow"/>
<feOffset/>
<feGaussianBlur stdDeviation="3.5"/>
<feColorMatrix type="matrix" values="0 0 0 0 1 0 0 0 0 1 0 0 0 0 1 0 0 0 0.25 0"/>
<feBlend mode="normal" in2="BackgroundImageFix" result="effect1_dropShadow"/>
<feBlend mode="normal" in="SourceGraphic" in2="effect1_dropShadow" result="shape"/>
</filter>
<clipPath id="clip0">
<rect width="31" height="30" fill="white" transform="translate(20 20)"/>
</clipPath>
</defs>
</svg>
