<?xml version="1.0" encoding="utf-8"?>
<!-- Generator: Adobe Illustrator 19.0.0, SVG Export Plug-In . SVG Version: 6.00 Build 0)  -->
<svg version="1.1" id="Слой_1" xmlns="http://www.w3.org/2000/svg" xmlns:xlink="http://www.w3.org/1999/xlink" x="0px" y="0px"
	 viewBox="-220.5 346.5 100 100" style="enable-background:new -220.5 346.5 100 100;" xml:space="preserve">
<style type="text/css">
	.st0{fill:#7BF3D6;}
	.st1{fill:#5BCBFA;}
	.st2{fill:#EC455A;}
	.st3{fill:#FFFFFF;}
	.st4{fill:#FFCBBE;}
	.st5{fill:#FFDDCE;}
	.st6{fill:#3E3D42;}
</style>
<circle class="st0" cx="-170.5" cy="396.5" r="50"/>
<path class="st1" d="M-183.7,410.8h26.4c2.3,0,4.6,0.9,6.2,2.6s2.6,3.9,2.6,6.2v8.8h-44v-8.8c0-2.3,0.9-4.6,2.6-6.2
	S-186,410.8-183.7,410.8z"/>
<path class="st2" d="M-173.8,415.2h6.6l1.1,13.2h-8.8L-173.8,415.2z"/>
<path class="st3" d="M-180.4,410.8l2.2,8.8l5.5-4.4l-1.1-4.4H-180.4z"/>
<path class="st3" d="M-160.6,410.8l-2.2,8.8l-5.5-4.4l1.1-4.4H-160.6z"/>
<path class="st4" d="M-163.9,410.8l-6.6,6.6l-6.6-6.6l1.1-13.2h11L-163.9,410.8z"/>
<path class="st5" d="M-170.5,405.3c-3.8,0-7.4-1.5-10.1-4.2c-2.7-2.7-4.2-6.3-4.2-10.1v-14.3c0-1,0.2-2,0.7-3
	c0.5-0.9,1.1-1.7,1.9-2.3c1.1-0.9,2.5-1.3,4-1.3h15.4c1.4,0,2.8,0.5,4,1.3c0.8,0.6,1.5,1.4,1.9,2.3c0.5,0.9,0.7,1.9,0.7,3V391
	c0,3.8-1.5,7.4-4.2,10.1C-163.1,403.8-166.7,405.3-170.5,405.3z"/>
<path class="st4" d="M-187,382.2h2.2v7.7h-2.2c-0.6,0-1.1-0.2-1.6-0.6c-0.4-0.4-0.6-1-0.6-1.6v-3.3c0-0.6,0.2-1.1,0.6-1.6
	C-188.1,382.4-187.6,382.2-187,382.2z"/>
<path class="st4" d="M-154,389.9h-2.2v-7.7h2.2c0.6,0,1.1,0.2,1.6,0.6c0.4,0.4,0.6,1,0.6,1.6v3.3c0,0.6-0.2,1.1-0.6,1.6
	C-152.9,389.7-153.4,389.9-154,389.9z"/>
<path class="st6" d="M-152.9,377.8v4.4h-5.2c-0.4,0-0.8-0.1-1.2-0.3c-0.3-0.2-0.6-0.5-0.8-0.9l-2.9-5.8c-0.3-0.5-0.7-1-1.2-1.3
	c-0.5-0.3-1.1-0.5-1.7-0.5h-0.1c-0.7,0-1.3,0.2-1.8,0.6c-0.5,0.4-1,0.9-1.2,1.5l-0.5,1.3c-0.3,0.7-0.7,1.2-1.2,1.7
	c-0.5,0.5-1.2,0.8-1.9,0.9l-12.1,2.8h-3.3v-4.4c0-3.5,1.4-6.9,3.9-9.3s5.8-3.9,9.3-3.9h8.8c3.5,0,6.9,1.4,9.3,3.9
	S-152.9,374.3-152.9,377.8z"/>
<path d="M-157.3,409.7h-5.6l-0.4-5.1c2.5-1.3,4.5-3.3,6-5.7c1.4-2.4,2.2-5.1,2.2-7.9h1.1c0.9,0,1.7-0.4,2.3-1c0.6-0.6,1-1.5,1-2.3
	v-3.3c0-0.5-0.1-0.9-0.3-1.3c-0.2-0.4-0.5-0.8-0.8-1.1v-4.2c0-3.8-1.5-7.4-4.2-10.1c-2.7-2.7-6.3-4.2-10.1-4.2h-8.8
	c-3.8,0-7.4,1.5-10.1,4.2c-2.7,2.7-4.2,6.3-4.2,10.1v4.2c-0.3,0.3-0.6,0.7-0.8,1.1c-0.2,0.4-0.3,0.9-0.3,1.3v3.3
	c0,0.9,0.4,1.7,1,2.3c0.6,0.6,1.5,1,2.3,1h1.1c0,2.8,0.8,5.5,2.2,7.9c1.4,2.4,3.5,4.4,6,5.7l-0.4,5.1h-5.6c-2.6,0-5.1,1-7,2.9
	c-1.9,1.9-2.9,4.4-2.9,7v8.8c0,0.3,0.1,0.6,0.3,0.8c0.2,0.2,0.5,0.3,0.8,0.3h44c0.3,0,0.6-0.1,0.8-0.3c0.2-0.2,0.3-0.5,0.3-0.8v-8.8
	c0-2.6-1-5.1-2.9-7C-152.2,410.7-154.7,409.7-157.3,409.7z M-152.9,384.4v3.3c0,0.3-0.1,0.6-0.3,0.8c-0.2,0.2-0.5,0.3-0.8,0.3h-1.1
	v-5.5h1.1c0.3,0,0.6,0.1,0.8,0.3C-153,383.8-152.9,384.1-152.9,384.4z M-185.9,388.8h-1.1c-0.3,0-0.6-0.1-0.8-0.3
	c-0.2-0.2-0.3-0.5-0.3-0.8v-3.3c0-0.3,0.1-0.6,0.3-0.8c0.2-0.2,0.5-0.3,0.8-0.3h1.1V388.8z M-187,381.1v-3.3c0-3.2,1.3-6.3,3.5-8.6
	c2.3-2.3,5.3-3.5,8.6-3.5h8.8c3.2,0,6.3,1.3,8.6,3.5c2.3,2.3,3.5,5.3,3.5,8.6v3.3h-4.1c-0.2,0-0.4-0.1-0.6-0.2
	c-0.2-0.1-0.3-0.3-0.4-0.4l-2.9-5.8c-0.4-0.7-0.9-1.3-1.6-1.8c-0.7-0.4-1.5-0.7-2.3-0.7h-0.1c-0.9,0-1.7,0.3-2.5,0.8
	c-0.7,0.5-1.3,1.2-1.6,2l-0.5,1.3c-0.2,0.5-0.5,0.9-0.9,1.3c-0.4,0.3-0.9,0.6-1.4,0.7l-11.9,2.7H-187z M-183.7,391v-7.9l11.2-2.6
	c0.9-0.2,1.7-0.6,2.3-1.2c0.7-0.6,1.2-1.3,1.5-2.1l0.5-1.3c0.2-0.4,0.4-0.8,0.8-1c0.4-0.2,0.8-0.4,1.2-0.4h0.1
	c0.4,0,0.8,0.1,1.2,0.3c0.3,0.2,0.6,0.5,0.8,0.9l2.9,5.8c0.3,0.5,0.7,1,1.2,1.3c0.5,0.3,1.1,0.5,1.7,0.5h0.8v7.7
	c0,3.5-1.4,6.9-3.9,9.3c-2.5,2.5-5.8,3.9-9.3,3.9s-6.9-1.4-9.3-3.9C-182.3,397.9-183.7,394.5-183.7,391z M-165,410.4l-5.5,5.5
	l-5.5-5.5l0.4-4.8c3.3,1.2,6.8,1.2,10.1,0L-165,410.4z M-175.9,427.3h-15.5v-7.7c0-2,0.8-4,2.3-5.4c1.4-1.4,3.4-2.3,5.4-2.3h2.4l2,8
	c0,0.2,0.1,0.3,0.3,0.5c0.1,0.1,0.3,0.2,0.5,0.3c0.1,0,0.2,0.1,0.4,0.1c0.2,0,0.5-0.1,0.7-0.2l2.3-1.9L-175.9,427.3z M-177.5,417.7
	l-1.4-5.8h1.4l3.2,3.2L-177.5,417.7z M-173.7,427.3l0.9-10.6l0,0l1.5,1.5c0.2,0.2,0.5,0.3,0.8,0.3s0.6-0.1,0.8-0.3l1.5-1.5l0,0
	l0.9,10.6H-173.7z M-166.7,415.1l3.2-3.2h1.4l-1.4,5.8L-166.7,415.1z M-149.6,427.3h-15.5l-0.7-8.7l2.3,1.9c0.2,0.2,0.4,0.2,0.7,0.2
	c0.1,0,0.2,0,0.4-0.1c0.2-0.1,0.3-0.2,0.5-0.3c0.1-0.1,0.2-0.3,0.3-0.5l2-8h2.4c2,0,4,0.8,5.4,2.3c1.4,1.4,2.3,3.4,2.3,5.4V427.3z"
	/>
<path d="M-176,384.4c-0.3,0-0.6,0.1-0.8,0.3c-0.2,0.2-0.3,0.5-0.3,0.8v2.2c0,0.3,0.1,0.6,0.3,0.8c0.2,0.2,0.5,0.3,0.8,0.3
	c0.3,0,0.6-0.1,0.8-0.3c0.2-0.2,0.3-0.5,0.3-0.8v-2.2c0-0.3-0.1-0.6-0.3-0.8C-175.4,384.5-175.7,384.4-176,384.4z"/>
<path d="M-165,388.8c0.3,0,0.6-0.1,0.8-0.3c0.2-0.2,0.3-0.5,0.3-0.8v-2.2c0-0.3-0.1-0.6-0.3-0.8c-0.2-0.2-0.5-0.3-0.8-0.3
	c-0.3,0-0.6,0.1-0.8,0.3c-0.2,0.2-0.3,0.5-0.3,0.8v2.2c0,0.3,0.1,0.6,0.3,0.8C-165.6,388.7-165.3,388.8-165,388.8z"/>
</svg>
