<svg width="40" height="36" viewBox="0 0 40 36" fill="none" xmlns="http://www.w3.org/2000/svg">
<path d="M19.3221 32.6561C19.3221 34.4908 17.8349 35.978 16.0002 35.978C14.1656 35.978 12.6783 34.4908 12.6783 32.6561C12.6783 30.8215 14.1656 29.3342 16.0002 29.3342C17.8349 29.3342 19.3221 30.8215 19.3221 32.6561ZM29.4508 29.3342C27.6162 29.3342 26.1289 30.8215 26.1289 32.6562C26.1289 34.4908 27.6162 35.9781 29.4508 35.9781C31.2854 35.9781 32.7727 34.4908 32.7727 32.6562C32.7727 30.8215 31.2854 29.3342 29.4508 29.3342ZM39.7623 13.7398L35.6747 25.8888C35.6747 25.8888 35.3364 27.6918 33.6124 27.6918C31.8885 27.6918 15.0296 27.6918 12.9722 27.6918C10.9149 27.6918 10.8284 25.4319 10.8284 25.4319C10.8284 25.4319 8.63524 9.16081 8.52656 8.17781C8.41787 7.19482 7.16076 6.46623 7.16076 6.46623L1.75186 3.93962C-1.20944 2.39104 0.136599 -0.555447 1.75186 0.121288C8.61053 3.35673 11.7966 4.94977 12.0016 6.22419C12.2091 7.50108 12.5696 10.576 12.5696 10.576V10.5958C12.6116 10.5834 12.6413 10.576 12.6413 10.576C12.6413 10.576 33.6742 10.576 37.9223 10.576C40.975 10.576 39.7623 13.7448 39.7623 13.7398ZM33.8495 20.5047L33.8075 20.5071H13.7971L14.2096 23.7772H32.8764L33.8495 20.5047ZM35.7982 13.9103H12.9697L13.4094 17.405C17.7884 17.405 30.6116 17.405 34.7658 17.405L35.7982 13.9103Z" fill="#090509"/>
</svg>
