<svg width="135" height="135" viewBox="0 0 135 135" fill="none" xmlns="http://www.w3.org/2000/svg">
<circle cx="67.5" cy="67.5" r="67.5" fill="#89A9FD"/>
<path d="M49.6875 86.7969H85.3125C88.4619 86.7969 91.4824 88.048 93.7094 90.275C95.9364 92.502 97.1875 95.5224 97.1875 98.6719V110.547H37.8125V98.6719C37.8125 95.5224 39.0636 92.502 41.2906 90.275C43.5176 88.048 46.5381 86.7969 49.6875 86.7969Z" fill="#48A3D2"/>
<path d="M67.5 94.2188C66.3556 94.2187 65.2233 93.9848 64.1726 93.5313C63.1219 93.0779 62.1749 92.4145 61.3898 91.5819C60.6047 90.7492 59.9981 89.7649 59.6071 88.6894C59.2162 87.6139 59.0491 86.4698 59.1163 85.3273L60.0782 68.9844H74.9219L75.8838 85.3273C75.9509 86.4698 75.7839 87.6139 75.3929 88.6894C75.002 89.7649 74.3953 90.7492 73.6102 91.5819C72.8252 92.4145 71.8782 93.0779 70.8275 93.5313C69.7767 93.9848 68.6444 94.2187 67.5 94.2188Z" fill="#FFCBBE"/>
<path d="M45.2344 48.2031H48.2031V58.5938H45.2344C44.447 58.5938 43.6919 58.281 43.1352 57.7242C42.5784 57.1675 42.2656 56.4124 42.2656 55.625V51.1719C42.2656 50.3845 42.5784 49.6294 43.1352 49.0727C43.6919 48.5159 44.447 48.2031 45.2344 48.2031Z" fill="#FFCBBE"/>
<path d="M89.7656 58.5938H86.7969V48.2031H89.7656C90.553 48.2031 91.3081 48.5159 91.8649 49.0727C92.4216 49.6294 92.7344 50.3845 92.7344 51.1719V55.625C92.7344 56.4124 92.4216 57.1675 91.8649 57.7242C91.3081 58.281 90.553 58.5938 89.7656 58.5938Z" fill="#FFCBBE"/>
<path d="M86.7969 43.75C86.7969 33.0926 78.1574 24.4531 67.5 24.4531C56.8426 24.4531 48.2031 33.0926 48.2031 43.75V61.5625C48.2031 72.2199 56.8426 80.8594 67.5 80.8594C78.1574 80.8594 86.7969 72.2199 86.7969 61.5625V43.75Z" fill="#FFDDCE"/>
<path d="M67.5 39.2969H63.0469L60.0781 33.3594L55.625 37.8125L51.1719 51.1719L48.2031 54.1406V43.75C48.2031 38.6322 50.2362 33.7239 53.855 30.105C57.4739 26.4862 62.3822 24.4531 67.5 24.4531C72.6178 24.4531 77.5261 26.4862 81.1449 30.105C84.7638 33.7239 86.7969 38.6322 86.7969 43.75V54.1406L83.8281 51.1719L79.375 37.8125L74.9219 33.3594L71.9531 39.2969H67.5Z" fill="#57565C"/>
<path d="M85.3125 85.3125H77.3711V85.2383L77.0594 79.9984C80.4366 78.2451 83.2685 75.5993 85.247 72.3489C87.2255 69.0985 88.275 65.3678 88.2812 61.5625V60.0781H89.7656C90.9456 60.0746 92.0762 59.6043 92.9106 58.7699C93.7449 57.9356 94.2152 56.805 94.2188 55.625V51.1719C94.2152 49.9919 93.7449 48.8613 92.9106 48.0269C92.0762 47.1926 90.9456 46.7223 89.7656 46.7188H88.2812V43.75C88.2812 38.2385 86.0918 32.9527 82.1946 29.0554C78.2973 25.1582 73.0115 22.9688 67.5 22.9688C61.9885 22.9688 56.7027 25.1582 52.8054 29.0554C48.9082 32.9527 46.7188 38.2385 46.7188 43.75V46.7188H45.2344C44.0544 46.7223 42.9238 47.1926 42.0894 48.0269C41.2551 48.8613 40.7848 49.9919 40.7812 51.1719V55.625C40.7848 56.805 41.2551 57.9356 42.0894 58.7699C42.9238 59.6043 44.0544 60.0746 45.2344 60.0781H46.7188V61.5625C46.725 65.3678 47.7745 69.0985 49.753 72.3489C51.7315 75.5993 54.5634 78.2451 57.9406 79.9984L57.6289 85.2383V85.3125H49.6875C46.1461 85.318 42.7512 86.7273 40.2471 89.2314C37.7429 91.7356 36.3336 95.1304 36.3281 98.6719V110.547C36.3281 110.941 36.4845 111.318 36.7629 111.596C37.0413 111.875 37.4188 112.031 37.8125 112.031H97.1875C97.5812 112.031 97.9587 111.875 98.2371 111.596C98.5155 111.318 98.6719 110.941 98.6719 110.547V98.6719C98.6664 95.1304 97.2571 91.7356 94.7529 89.2314C92.2488 86.7273 88.8539 85.318 85.3125 85.3125ZM88.2812 49.6875H89.7656C90.1593 49.6875 90.5369 49.8439 90.8152 50.1223C91.0936 50.4006 91.25 50.7782 91.25 51.1719V55.625C91.25 56.0187 91.0936 56.3962 90.8152 56.6746C90.5369 56.953 90.1593 57.1094 89.7656 57.1094H88.2812V49.6875ZM46.7188 57.1094H45.2344C44.8407 57.1094 44.4631 56.953 44.1848 56.6746C43.9064 56.3962 43.75 56.0187 43.75 55.625V51.1719C43.75 50.7782 43.9064 50.4006 44.1848 50.1223C44.4631 49.8439 44.8407 49.6875 45.2344 49.6875H46.7188V57.1094ZM49.6875 43.75C49.6875 39.0258 51.5642 34.4952 54.9047 31.1547C58.2452 27.8142 62.7758 25.9375 67.5 25.9375C72.2242 25.9375 76.7548 27.8142 80.0953 31.1547C83.4358 34.4952 85.3125 39.0258 85.3125 43.75V50.5633L85.1195 50.3703L80.7852 37.3375C80.7101 37.1208 80.5885 36.9232 80.4289 36.7586L75.9758 32.3055C75.8063 32.1426 75.6018 32.0205 75.3781 31.9485C75.1543 31.8765 74.9171 31.8564 74.6844 31.8898C74.4533 31.9285 74.2347 32.0212 74.0464 32.1605C73.858 32.2999 73.7053 32.4818 73.6008 32.6914L71.0328 37.8125H63.9672L61.3992 32.6914C61.2947 32.4818 61.142 32.2999 60.9536 32.1605C60.7653 32.0212 60.5467 31.9285 60.3156 31.8898C60.0831 31.86 59.8468 31.8817 59.6236 31.9536C59.4003 32.0254 59.1957 32.1456 59.0242 32.3055L54.5711 36.7586C54.4115 36.9232 54.2899 37.1208 54.2148 37.3375L49.8805 50.3703L49.6875 50.5633V43.75ZM49.6875 61.5625V54.7492L52.2258 52.2258C52.3854 52.0611 52.507 51.8635 52.582 51.6469L56.9164 38.6141L59.6773 35.868L61.7258 39.9648C61.8459 40.2122 62.0339 40.4202 62.2678 40.5648C62.5017 40.7093 62.7719 40.7844 63.0469 40.7812H71.9531C72.2281 40.7844 72.4983 40.7093 72.7322 40.5648C72.9661 40.4202 73.1541 40.2122 73.2742 39.9648L75.3227 35.868L78.0836 38.6141L82.418 51.6469C82.493 51.8635 82.6146 52.0611 82.7742 52.2258L85.3125 54.7492V61.5625C85.3125 66.2867 83.4358 70.8173 80.0953 74.1578C76.7548 77.4983 72.2242 79.375 67.5 79.375C62.7758 79.375 58.2452 77.4983 54.9047 74.1578C51.5642 70.8173 49.6875 66.2867 49.6875 61.5625ZM74.4023 85.4164C74.4575 86.3569 74.3199 87.2987 73.998 88.1841C73.6761 89.0695 73.1766 89.8798 72.5303 90.5652C71.8839 91.2506 71.1043 91.7967 70.2393 92.1699C69.3743 92.5432 68.4421 92.7357 67.5 92.7357C66.5579 92.7357 65.6257 92.5432 64.7607 92.1699C63.8957 91.7967 63.1161 91.2506 62.4697 90.5652C61.8234 89.8798 61.3239 89.0695 61.002 88.1841C60.6801 87.2987 60.5425 86.3569 60.5977 85.4164L60.85 81.2305C65.1591 82.7149 69.8409 82.7149 74.15 81.2305L74.4023 85.4164ZM95.7031 109.062H39.2969V98.6719C39.3 95.9171 40.3958 93.276 42.3437 91.3281C44.2916 89.3801 46.9327 88.2844 49.6875 88.2812H57.9258C58.4743 90.4034 59.7124 92.2831 61.4454 93.6251C63.1784 94.9671 65.3081 95.6953 67.5 95.6953C69.6919 95.6953 71.8216 94.9671 73.5546 93.6251C75.2876 92.2831 76.5257 90.4034 77.0742 88.2812H85.3125C88.0673 88.2844 90.7084 89.3801 92.6563 91.3281C94.6043 93.276 95.7 95.9171 95.7031 98.6719V109.062Z" fill="black"/>
<path d="M60.0781 51.1719C59.6844 51.1719 59.3069 51.3283 59.0285 51.6066C58.7501 51.885 58.5938 52.2626 58.5938 52.6562V55.625C58.5938 56.0187 58.7501 56.3962 59.0285 56.6746C59.3069 56.953 59.6844 57.1094 60.0781 57.1094C60.4718 57.1094 60.8494 56.953 61.1277 56.6746C61.4061 56.3962 61.5625 56.0187 61.5625 55.625V52.6562C61.5625 52.2626 61.4061 51.885 61.1277 51.6066C60.8494 51.3283 60.4718 51.1719 60.0781 51.1719Z" fill="black"/>
<path d="M74.9219 57.1094C75.3156 57.1094 75.6931 56.953 75.9715 56.6746C76.2499 56.3962 76.4062 56.0187 76.4062 55.625V52.6562C76.4062 52.2626 76.2499 51.885 75.9715 51.6066C75.6931 51.3283 75.3156 51.1719 74.9219 51.1719C74.5282 51.1719 74.1506 51.3283 73.8723 51.6066C73.5939 51.885 73.4375 52.2626 73.4375 52.6562V55.625C73.4375 56.0187 73.5939 56.3962 73.8723 56.6746C74.1506 56.953 74.5282 57.1094 74.9219 57.1094Z" fill="black"/>
</svg>
