<svg width="135" height="135" viewBox="0 0 135 135" fill="none" xmlns="http://www.w3.org/2000/svg">
<circle cx="67.5" cy="67.5" r="67.5" fill="#7BF3D6"/>
<path d="M49.6875 86.7969H85.3125C88.4619 86.7969 91.4824 88.048 93.7094 90.275C95.9364 92.502 97.1875 95.5224 97.1875 98.6719V110.547H37.8125V98.6719C37.8125 95.5224 39.0636 92.502 41.2906 90.275C43.5176 88.048 46.5381 86.7969 49.6875 86.7969Z" fill="#5BCBFA"/>
<path d="M63.0469 92.7344H71.9531L73.4375 110.547H61.5625L63.0469 92.7344Z" fill="#EC455A"/>
<path d="M54.1406 86.7969L57.1094 98.6719L64.5312 92.7344L63.0469 86.7969H54.1406Z" fill="white"/>
<path d="M80.8594 86.7969L77.8906 98.6719L70.4688 92.7344L71.9531 86.7969H80.8594Z" fill="white"/>
<path d="M76.4062 86.7969L67.5 95.7031L58.5938 86.7969L60.0781 68.9844H74.9219L76.4062 86.7969Z" fill="#FFCBBE"/>
<path d="M67.5 79.375C62.3822 79.375 57.4739 77.3419 53.855 73.7231C50.2362 70.1042 48.2031 65.196 48.2031 60.0781V40.7812C48.2031 39.3986 48.525 38.0349 49.1434 36.7983C49.7617 35.5616 50.6595 34.4858 51.7656 33.6562C53.3073 32.5 55.1823 31.875 57.1094 31.875H77.8906C79.8177 31.875 81.6927 32.5 83.2344 33.6562C84.3405 34.4858 85.2383 35.5616 85.8566 36.7983C86.475 38.0349 86.7969 39.3986 86.7969 40.7812V60.0781C86.7969 65.196 84.7638 70.1042 81.1449 73.7231C77.5261 77.3419 72.6178 79.375 67.5 79.375Z" fill="#FFDDCE"/>
<path d="M45.2344 48.2031H48.2031V58.5938H45.2344C44.447 58.5938 43.6919 58.281 43.1352 57.7242C42.5784 57.1675 42.2656 56.4124 42.2656 55.625V51.1719C42.2656 50.3845 42.5784 49.6294 43.1352 49.0727C43.6919 48.5159 44.447 48.2031 45.2344 48.2031Z" fill="#FFCBBE"/>
<path d="M89.7656 58.5938H86.7969V48.2031H89.7656C90.553 48.2031 91.3081 48.5159 91.8649 49.0727C92.4216 49.6294 92.7344 50.3845 92.7344 51.1719V55.625C92.7344 56.4124 92.4216 57.1675 91.8649 57.7242C91.3081 58.281 90.553 58.5938 89.7656 58.5938Z" fill="#FFCBBE"/>
<path d="M91.25 42.2656V48.2031H84.1784C83.627 48.2031 83.0865 48.0495 82.6174 47.7595C82.1484 47.4696 81.7694 47.0547 81.5229 46.5614L77.6368 38.7892C77.2669 38.0497 76.6984 37.4278 75.995 36.9931C75.2916 36.5584 74.4811 36.3282 73.6542 36.3281H73.4835C72.5936 36.3283 71.7241 36.5951 70.9873 37.094C70.2504 37.593 69.68 38.3014 69.3495 39.1277L68.6534 40.8673C68.2975 41.757 67.7315 42.5473 67.0039 43.1708C66.2763 43.7942 65.4085 44.2323 64.4748 44.4477L48.2031 48.2031H43.75V42.2656C43.75 37.5415 45.6267 33.0108 48.9672 29.6703C52.3077 26.3298 56.8383 24.4531 61.5625 24.4531H73.4375C78.1617 24.4531 82.6923 26.3298 86.0328 29.6703C89.3733 33.0108 91.25 37.5415 91.25 42.2656Z" fill="#3E3D42"/>
<path d="M85.3125 85.3125H77.7719L77.193 78.4398C80.5363 76.6769 83.3354 74.0356 85.2893 70.8002C87.2431 67.5647 88.2775 63.8577 88.2812 60.0781H89.7656C90.9456 60.0746 92.0762 59.6043 92.9106 58.7699C93.7449 57.9356 94.2152 56.805 94.2188 55.625V51.1719C94.2167 50.5491 94.0835 49.9338 93.8277 49.366C93.5719 48.7983 93.1994 48.2907 92.7344 47.8766V42.2656C92.7297 37.1492 90.6951 32.2437 87.0772 28.6259C83.4594 25.008 78.5539 22.9735 73.4375 22.9688H61.5625C56.4461 22.9735 51.5406 25.008 47.9228 28.6259C44.3049 32.2437 42.2703 37.1492 42.2656 42.2656V47.8766C41.8006 48.2907 41.4281 48.7983 41.1723 49.366C40.9165 49.9338 40.7833 50.5491 40.7812 51.1719V55.625C40.7848 56.805 41.2551 57.9356 42.0894 58.7699C42.9238 59.6043 44.0544 60.0746 45.2344 60.0781H46.7188C46.7225 63.8577 47.7569 67.5647 49.7107 70.8002C51.6646 74.0356 54.4637 76.6769 57.807 78.4398L57.2281 85.3125H49.6875C46.1461 85.318 42.7512 86.7273 40.2471 89.2314C37.7429 91.7356 36.3336 95.1304 36.3281 98.6719V110.547C36.3281 110.941 36.4845 111.318 36.7629 111.596C37.0413 111.875 37.4188 112.031 37.8125 112.031H97.1875C97.5812 112.031 97.9587 111.875 98.2371 111.596C98.5155 111.318 98.6719 110.941 98.6719 110.547V98.6719C98.6664 95.1304 97.2571 91.7356 94.7529 89.2314C92.2488 86.7273 88.8539 85.318 85.3125 85.3125ZM91.25 51.1719V55.625C91.25 56.0187 91.0936 56.3962 90.8152 56.6746C90.5369 56.953 90.1593 57.1094 89.7656 57.1094H88.2812V49.6875H89.7656C90.1593 49.6875 90.5369 49.8439 90.8152 50.1223C91.0936 50.4006 91.25 50.7782 91.25 51.1719ZM46.7188 57.1094H45.2344C44.8407 57.1094 44.4631 56.953 44.1848 56.6746C43.9064 56.3962 43.75 56.0187 43.75 55.625V51.1719C43.75 50.7782 43.9064 50.4006 44.1848 50.1223C44.4631 49.8439 44.8407 49.6875 45.2344 49.6875H46.7188V57.1094ZM45.2344 46.7188V42.2656C45.2371 37.936 46.9583 33.7845 50.0198 30.7229C53.0813 27.6614 57.2329 25.9403 61.5625 25.9375H73.4375C77.7671 25.9403 81.9187 27.6614 84.9802 30.7229C88.0417 33.7845 89.7629 37.936 89.7656 42.2656V46.7188H84.1844C83.9062 46.7193 83.6334 46.6417 83.3972 46.4947C83.161 46.3477 82.9708 46.1373 82.8484 45.8875L78.9594 38.1242C78.4702 37.1374 77.7146 36.3072 76.7781 35.7275C75.8416 35.1477 74.7616 34.8416 73.6602 34.8438H73.482C72.2936 34.8376 71.1312 35.1918 70.1481 35.8596C69.165 36.5273 68.4073 37.4774 67.975 38.5844L67.2773 40.3062C67.0108 40.9751 66.587 41.5699 66.0418 42.0401C65.4966 42.5104 64.846 42.8423 64.1453 43.0078L48.0398 46.7188H45.2344ZM49.6875 60.0781V49.3906L64.7984 45.9023C65.9684 45.6327 67.0559 45.0842 67.9682 44.3037C68.8806 43.5231 69.5908 42.5337 70.0383 41.4195L70.7359 39.6828C70.9502 39.1295 71.3275 38.6543 71.8179 38.3203C72.3083 37.9863 72.8887 37.8092 73.482 37.8125H73.6602C74.2127 37.8116 74.7545 37.9655 75.2241 38.2567C75.6937 38.5479 76.0724 38.9648 76.3172 39.4602L80.2063 47.2234C80.5737 47.9641 81.141 48.5874 81.8439 49.0228C82.5469 49.4582 83.3575 49.6884 84.1844 49.6875H85.3125V60.0781C85.3125 64.8023 83.4358 69.333 80.0953 72.6735C76.7548 76.014 72.2242 77.8906 67.5 77.8906C62.7758 77.8906 58.2452 76.014 54.9047 72.6735C51.5642 69.333 49.6875 64.8023 49.6875 60.0781ZM74.8625 86.2328L67.5 93.6102L60.1375 86.2328L60.6719 79.6867C65.0897 81.2503 69.9103 81.2503 74.3281 79.6867L74.8625 86.2328ZM60.1969 109.062H39.2969V98.6719C39.3 95.9171 40.3958 93.276 42.3437 91.3281C44.2916 89.3801 46.9327 88.2844 49.6875 88.2812H52.9828L55.6695 99.0281C55.73 99.2702 55.8498 99.4934 56.0183 99.6774C56.1868 99.8615 56.3986 100.001 56.6344 100.082C56.7886 100.128 56.9484 100.153 57.1094 100.156C57.4442 100.154 57.7685 100.039 58.0297 99.8297L61.1766 97.3211L60.1969 109.062ZM57.9852 96.0742L56.0406 88.2812H57.9852L62.3047 92.6156L57.9852 96.0742ZM63.1805 109.062L64.368 94.768L64.4273 94.7234L66.4461 96.757C66.7275 97.033 67.1059 97.1876 67.5 97.1876C67.8941 97.1876 68.2725 97.033 68.5539 96.757L70.5727 94.7234L70.632 94.768L71.8195 109.062H63.1805ZM72.6953 92.6156L77.0148 88.2812H78.9594L77.0148 96.0742L72.6953 92.6156ZM95.7031 109.062H74.8031L73.8234 97.3211L76.9703 99.8297C77.2315 100.039 77.5558 100.154 77.8906 100.156C78.0517 100.155 78.2117 100.13 78.3656 100.082C78.6014 100.001 78.8132 99.8615 78.9817 99.6774C79.1502 99.4934 79.27 99.2702 79.3305 99.0281L82.0172 88.2812H85.3125C88.0673 88.2844 90.7084 89.3801 92.6563 91.3281C94.6043 93.276 95.7 95.9171 95.7031 98.6719V109.062Z" fill="black"/>
<path d="M60.0781 51.1719C59.6844 51.1719 59.3069 51.3283 59.0285 51.6066C58.7501 51.885 58.5938 52.2626 58.5938 52.6562V55.625C58.5938 56.0187 58.7501 56.3962 59.0285 56.6746C59.3069 56.953 59.6844 57.1094 60.0781 57.1094C60.4718 57.1094 60.8494 56.953 61.1277 56.6746C61.4061 56.3962 61.5625 56.0187 61.5625 55.625V52.6562C61.5625 52.2626 61.4061 51.885 61.1277 51.6066C60.8494 51.3283 60.4718 51.1719 60.0781 51.1719Z" fill="black"/>
<path d="M74.9219 57.1094C75.3156 57.1094 75.6931 56.953 75.9715 56.6746C76.2499 56.3962 76.4062 56.0187 76.4062 55.625V52.6562C76.4062 52.2626 76.2499 51.885 75.9715 51.6066C75.6931 51.3283 75.3156 51.1719 74.9219 51.1719C74.5282 51.1719 74.1506 51.3283 73.8723 51.6066C73.5939 51.885 73.4375 52.2626 73.4375 52.6562V55.625C73.4375 56.0187 73.5939 56.3962 73.8723 56.6746C74.1506 56.953 74.5282 57.1094 74.9219 57.1094Z" fill="black"/>
</svg>
